# xmcd CD database file
#
# Track frame offsets:
#	150
#	13787
#	44412
#	78062
#	107775
#	136562
#	161812
#	181700
#	202175
#	225850
#	242925
#
# Disc length: 3578 seconds
#
# Revision: 0
# Processed by: cddbd v1.5.1PL2 Copyright (c) Steve Scherf et al.
# Submitted via: CDex 1.51
#
DISCID=820df80b
DTITLE=Lenny "Fuzzy" Rankin - Not Gonna Work This Time
DYEAR=1993
DGENRE=Blues
TTITLE0=A Walk Blues
TTITLE1=Slow Walk Home
TTITLE2=They Call Me Fuzzy
TTITLE3=Ain't No Use
TTITLE4=Fallin' In Love Again
TTITLE5=Let Me Love You Tonight
TTITLE6=Funky Rhythm Blues
TTITLE7=Not Gonna Work This Time
TTITLE8=Mojo Workin'
TTITLE9=Let's Jam The Blues
TTITLE10=Grandpa Can't Fly His Kite
EXTD=YEAR: 1993
EXTT0=
EXTT1=
EXTT2=
EXTT3=
EXTT4=
EXTT5=
EXTT6=
EXTT7=
EXTT8=
EXTT9=
EXTT10=
PLAYORDER=
